<svg id="visual" viewBox="0 0 900 600" width="900" height="600" xmlns="http://www.w3.org/2000/svg" xmlns:xlink="http://www.w3.org/1999/xlink" version="1.1"><rect x="0" y="0" width="900" height="600" fill="#2E2E2E"></rect><g fill="#f63535"><circle r="14" cx="222" cy="428"></circle><circle r="6" cx="147" cy="214"></circle><circle r="5" cx="389" cy="320"></circle><circle r="12" cx="22" cy="224"></circle><circle r="6" cx="457" cy="550"></circle><circle r="10" cx="359" cy="376"></circle><circle r="7" cx="683" cy="412"></circle><circle r="11" cx="426" cy="30"></circle><circle r="12" cx="755" cy="581"></circle><circle r="5" cx="406" cy="87"></circle><circle r="12" cx="492" cy="134"></circle><circle r="6" cx="180" cy="434"></circle><circle r="5" cx="816" cy="161"></circle><circle r="6" cx="269" cy="52"></circle><circle r="11" cx="663" cy="308"></circle><circle r="11" cx="514" cy="20"></circle><circle r="12" cx="110" cy="420"></circle><circle r="8" cx="509" cy="462"></circle><circle r="12" cx="275" cy="391"></circle><circle r="11" cx="641" cy="510"></circle></g></svg>